<svg xmlns="http://www.w3.org/2000/svg" data-name="Layer 1" viewBox="0 0 100 125" x="0px" y="0px"><title>UI2</title><path d="M68.75,57.58A25.92,25.92,0,0,1,50.08,65c-1.92,0-3.85,0-5.77,0a2.09,2.09,0,0,0-1.7.7c-4.33,4.56-8.7,9.09-13,13.63a4.33,4.33,0,0,1-3.26,1.53,3.9,3.9,0,0,1-3.89-4q0-5.67,0-11.33c0-.72-.2-1-.93-1.14-10.66-2.74-17.16-9.69-20.32-20A58,58,0,0,1,0,38.48V33a32.34,32.34,0,0,1,1-5.16C3.61,18.36,9.23,11.49,18.59,7.92A23.59,23.59,0,0,1,27,6.45c7.53,0,15.07,0,22.61,0C60.13,6.4,68,11.08,73.4,19.85A30.84,30.84,0,0,1,68.75,57.58Z"/><path d="M92.54,42.86a19.78,19.78,0,0,0-9.89-4.79c0,.27-.07.43-.09.58a33.85,33.85,0,0,1-4,13.78c-6.18,11.2-15.55,17.32-28.54,17.48-1.37,0-2.74,0-4.11,0-1.12,0-1.62.86-1.05,1.79,3.16,5.16,7.58,8.69,13.63,9.74a54.45,54.45,0,0,0,7.89.39A2,2,0,0,1,68,82.5c1.76,1.88,3.56,3.72,5.34,5.58,1.37,1.43,2.73,2.89,4.14,4.3a3.43,3.43,0,0,0,4.83.34,3.67,3.67,0,0,0,1.19-3c0-2.37,0-4.75,0-7.12,0-.85.23-1.15,1.07-1.47a27.38,27.38,0,0,0,5.92-2.7C102.27,70.33,103.3,52.42,92.54,42.86Z"/></svg>