<svg xmlns="http://www.w3.org/2000/svg" viewBox="0 0 32 40" x="0px" y="0px"><g><path d="M3.97,6.27A3.37035,3.37035,0,0,1,5.58,5.87H26.42a3.37035,3.37035,0,0,1,1.61005.4L17.71,16.59a2.41429,2.41429,0,0,1-3.41.01ZM29.44,7.69,21.13,16l5.86,5.86a1.00054,1.00054,0,1,1-1.41,1.42L19.72,17.42a4.61474,4.61474,0,0,1-7.43,0L6.42,23.28a1.00054,1.00054,0,0,1-1.41-1.42L10.87,16c-2.04191-2.042-5.61682-5.61688-8.31-8.31a3.30143,3.30143,0,0,0-.4,1.6V22.71A3.41853,3.41853,0,0,0,5.58,26.13H26.42A3.41853,3.41853,0,0,0,29.84,22.71V9.29A3.30143,3.30143,0,0,0,29.44,7.69Z"/></g></svg>