<svg xmlns="http://www.w3.org/2000/svg" viewBox="0 0 32 40" x="0px" y="0px"><path d="M28.3,21.26l-2.83-1.78c-1.35-.85-3.09-.66-4.21,.47l-.85,.85c-.23,.23-.76,.34-1.04,.22-3.83-1.75-6.66-4.59-8.41-8.42-.13-.27-.02-.8,.22-1.03l.84-.85c1.13-1.13,1.33-2.86,.48-4.21l-1.78-2.83c-.56-.88-1.47-1.45-2.5-1.57-1.04-.11-2.05,.24-2.78,.98l-1.09,1.08c-2.14,2.14-2.81,5.33-1.72,8.12,.12,.31,.25,.62,.39,.92,.14,.34,.29,.67,.44,1,.05,.13,.11,.26,.17,.39,.01,.02,.02,.05,.04,.07,.79,1.67,1.72,3.23,2.77,4.66,0,.02,.01,.04,.03,.05,.01,.03,.03,.06,.05,.09,.05,.07,.1,.14,.16,.21,.21,.27,.42,.54,.64,.81,.004,.005,.01,.006,.014,.011,3.179,3.981,7.343,6.982,12.406,8.919,.86,.33,1.75,.49,2.64,.49,1.97,0,3.92-.78,5.38-2.24l1.13-1.13c.74-.74,1.09-1.75,.97-2.78-.11-1.04-.68-1.95-1.56-2.5Z"/><text x="0" y="47" fill="#000000" font-size="5px" font-weight="bold" font-family="'Helvetica Neue', Helvetica, Arial-Unicode, Arial, Sans-serif">Created by Kiki Rizky</text><text x="0" y="52" fill="#000000" font-size="5px" font-weight="bold" font-family="'Helvetica Neue', Helvetica, Arial-Unicode, Arial, Sans-serif">from the Noun Project</text></svg>